<svg xmlns="http://www.w3.org/2000/svg" width="127.788" height="134.743" viewBox="0 0 127.788 134.743">
  <g id="_146_404_page_not_found_flatline" data-name="#146_404_page_not_found_flatline" transform="translate(-135.46 -82.879)">
    <path id="Path_75" data-name="Path 75" d="M196.48,102.33a51.94,51.94,0,1,0,36.748,15.234A51.952,51.952,0,0,0,196.48,102.33Z" fill="#fff" stroke="#231f20" stroke-linecap="round" stroke-linejoin="round" stroke-width="1.03"/>
    <ellipse id="Ellipse_54" data-name="Ellipse 54" cx="2.4" cy="3.57" rx="2.4" ry="3.57" transform="translate(221.31 133.81)" fill="#231f20"/>
    <path id="Path_76" data-name="Path 76" d="M135.46,138.89l122-27-24-7s-13-21.55-16.47-22-66.53,13-66.53,13l-4,30.36Z" fill="#31394c"/>
    <path id="Path_77" data-name="Path 77" d="M176.27,165.1s31-12.39,44.56,10.69" fill="#fff"/>
    <path id="Path_78" data-name="Path 78" d="M220.83,176.31a.51.51,0,0,1-.44-.26c-13.19-22.43-43.63-10.59-43.93-10.47a.537.537,0,1,1-.39-1c.32-.12,31.57-12.29,45.21,10.91a.53.53,0,0,1-.18.71.54.54,0,0,1-.27.11Z" fill="#231f20"/>
    <path id="Path_79" data-name="Path 79" d="M160.86,211.99l-13.79-21.8,60.28-10.31,4.14,20.89,6.12-19.24,30.84,6.09-6.27,24.37Z" fill="#31394c"/>
    <path id="Path_80" data-name="Path 80" d="M239.69,164.23h5.61v20.94a2.64,2.64,0,0,1-2.64,2.64h-.33a2.64,2.64,0,0,1-2.64-2.64Z" transform="matrix(0.991, -0.137, 0.137, 0.991, -21.84, 34.9)" fill="#fff"/>
    <path id="Path_81" data-name="Path 81" d="M243.59,188.25a3.15,3.15,0,0,1-3.11-2.71l-2.87-20.75a.5.5,0,0,1,.43-.56l5.55-.77a.5.5,0,0,1,.37.1.47.47,0,0,1,.19.33L247,184.63a3.12,3.12,0,0,1-2.68,3.54l-.32.05A3.108,3.108,0,0,1,243.59,188.25Zm-4.92-23.1,2.8,20.25a2.15,2.15,0,0,0,2.41,1.83h.33a2.14,2.14,0,0,0,1.82-2.41l-2.8-20.25Z" fill="#231f20"/>
    <rect id="Rectangle_507" data-name="Rectangle 507" width="9.05" height="20.48" transform="matrix(0.991, -0.137, 0.137, 0.991, 233.835, 146.41)" fill="#fff"/>
    <path id="Path_82" data-name="Path 82" d="M236.64,167.21a.54.54,0,0,1-.3-.1.45.45,0,0,1-.19-.33l-2.81-20.3a.49.49,0,0,1,.09-.37.53.53,0,0,1,.33-.19l9-1.24a.49.49,0,0,1,.56.43l2.81,20.29a.5.5,0,0,1-.43.56l-9,1.24Zm-2.24-20.37,2.67,19.3,8-1.1-2.67-19.3Z" fill="#231f20"/>
    <rect id="Rectangle_508" data-name="Rectangle 508" width="9.05" height="35.62" rx="3.2" transform="matrix(0.991, -0.137, 0.137, 0.991, 238.59, 180.753)" fill="#fff"/>
    <path id="Path_83" data-name="Path 83" d="M246.19,216.14a3.7,3.7,0,0,1-3.66-3.19l-4-28.95a3.68,3.68,0,0,1,.71-2.74,3.72,3.72,0,0,1,2.44-1.43l2.64-.36a3.69,3.69,0,0,1,4.16,3.15l4,29a3.7,3.7,0,0,1-3.15,4.16h0l-2.64.37Zm3.08-.89Zm-4.44-34.82a2.311,2.311,0,0,0-.37,0l-2.64.36a2.67,2.67,0,0,0-1.78,1.05,2.63,2.63,0,0,0-.52,2l4,29a2.71,2.71,0,0,0,3,2.3l2.64-.37a2.7,2.7,0,0,0,2.3-3l-4-29a2.7,2.7,0,0,0-2.66-2.33Z" fill="#231f20"/>
    <circle id="Ellipse_55" data-name="Ellipse 55" cx="24.03" cy="24.03" r="24.03" transform="translate(213.57 116.59)" fill="#fff"/>
    <path id="Path_84" data-name="Path 84" d="M237.58,165.15a24.54,24.54,0,1,1,24.32-27.9h0A24.57,24.57,0,0,1,241,164.92,25.707,25.707,0,0,1,237.58,165.15Zm0-48.07a23.539,23.539,0,1,0,23.29,20.31h0a23.58,23.58,0,0,0-23.25-20.31Z" fill="#231f20"/>
    <circle id="Ellipse_56" data-name="Ellipse 56" cx="19.52" cy="19.52" r="19.52" transform="translate(218.08 121.1)" fill="#fff"/>
    <path id="Path_85" data-name="Path 85" d="M237.59,160.64a20,20,0,1,1,2.75-.19A19.662,19.662,0,0,1,237.59,160.64Zm0-39a19.778,19.778,0,0,0-2.65.18,19,19,0,1,0,2.65-.18Z" fill="#231f20"/>
    <path id="Path_86" data-name="Path 86" d="M260.55,194.79a14.57,14.57,0,0,0-4.9-4c-5.73-3-12.3-2.9-18.33-1-2.14.68-6.29,1.65-6.51,4.49a2.64,2.64,0,0,0,1.91,2.5,7.86,7.86,0,0,0,3.35.13,8.65,8.65,0,0,0-4.53,1.14c-1.29.91-2,2.9-.94,4.11a3.39,3.39,0,0,0,1.75,1,8,8,0,0,0,4.45-.06,20.74,20.74,0,0,0-4.55,1.43c-.88.39-1.86,1.08-1.76,2s1,1.34,1.82,1.62a18.749,18.749,0,0,0,5.35,1,10.54,10.54,0,0,0-4.35,1.87c-2,1.68-2,4.87.71,5.78a8,8,0,0,0,2.68.31c8,0,17.58-1,23-7.66a12.43,12.43,0,0,0,2.56-11.31A10.839,10.839,0,0,0,260.55,194.79Z" fill="#fff" stroke="#707070" stroke-width="1"/>
    <path id="Path_87" data-name="Path 87" d="M236.64,217.58a8.43,8.43,0,0,1-2.78-.33,3.45,3.45,0,0,1-2.38-2.63,4.36,4.36,0,0,1,1.5-4,7.46,7.46,0,0,1,2.16-1.25,18.61,18.61,0,0,1-3-.77c-1.33-.46-2-1.14-2.15-2s.62-1.9,2-2.55l.71-.3a5.288,5.288,0,0,1-.54-.13,3.77,3.77,0,0,1-2-1.14,2.76,2.76,0,0,1-.59-2.16,4,4,0,0,1,1.62-2.67,4.88,4.88,0,0,1,1-.54,3.07,3.07,0,0,1-1.91-2.87c.23-2.92,3.84-4,6.22-4.73l.64-.19c6.68-2.11,13.33-1.74,18.71,1a15,15,0,0,1,5.07,4.18,11.47,11.47,0,0,1,1.81,3.48,12.89,12.89,0,0,1-2.65,11.78c-5.67,6.93-15.49,7.83-23.41,7.84Zm-.95-13.79a19.74,19.74,0,0,0-3.24,1.13c-.47.21-1.54.78-1.46,1.52s.84,1,1.48,1.21a18.11,18.11,0,0,0,5.21,1,.49.49,0,0,1,.48.44.5.5,0,0,1-.37.54,10.4,10.4,0,0,0-4.16,1.77,3.31,3.31,0,0,0-1.17,3.06,2.44,2.44,0,0,0,1.72,1.87,7.2,7.2,0,0,0,2.51.28c7.71,0,17.24-.86,22.64-7.47a11.9,11.9,0,0,0,2.48-10.85,10.48,10.48,0,0,0-1.66-3.17h0a13.88,13.88,0,0,0-4.73-3.9c-5.15-2.65-11.52-3-17.95-1l-.65.2c-2.12.64-5.34,1.61-5.52,3.85a2.17,2.17,0,0,0,1.58,2,4.85,4.85,0,0,0,1.79.22c.47-.05.93-.08,1.37-.11a.52.52,0,0,1,.53.46.51.51,0,0,1-.45.54c-.45,0-.92.1-1.4.11a6.15,6.15,0,0,0-2.89.94,3,3,0,0,0-1.21,2,1.79,1.79,0,0,0,.36,1.39,2.91,2.91,0,0,0,1.5.82,7.68,7.68,0,0,0,3,.2c.4-.1.81-.19,1.21-.27a.5.5,0,0,1,.58.37.51.51,0,0,1-.34.6,7.66,7.66,0,0,1-1.24.25Z" fill="#231f20"/>
    <path id="Path_88" data-name="Path 88" d="M204.79,141s12.18,18.3,4.81,18.56-8-1.67-8-1.67" fill="#fff"/>
    <path id="Path_89" data-name="Path 89" d="M208.28,160.14c-6.18,0-7.07-1.69-7.19-2a.53.53,0,0,1,.33-.66.52.52,0,0,1,.65.33h0s.9,1.55,7.51,1.31a1.69,1.69,0,0,0,1.62-.84c1.58-3.07-4.4-13.25-6.84-16.91a.52.52,0,0,1,.86-.58c.93,1.4,9,13.8,6.9,18a2.68,2.68,0,0,1-2.5,1.41Z" fill="#231f20"/>
    <ellipse id="Ellipse_57" data-name="Ellipse 57" cx="4.42" cy="7.53" rx="4.42" ry="7.53" transform="translate(234.29 132.48)" fill="#d1d3d4"/>
    <ellipse id="Ellipse_58" data-name="Ellipse 58" cx="3.37" cy="6.09" rx="3.37" ry="6.09" transform="translate(181.25 133.92)" fill="#231f20"/>
  </g>
</svg>
