<svg xmlns="http://www.w3.org/2000/svg" width="24" height="19" viewBox="0 0 24 19">
  <g id="hide" transform="translate(0 -3)">
    <path id="Path_17" data-name="Path 17" d="M3.174,16.207A15.481,15.481,0,0,0,5.54,18.046L3.293,20.293a1,1,0,1,0,1.414,1.414l6.428-6.428L21.707,4.707a1,1,0,1,0-1.414-1.414L17.94,5.646a12.292,12.292,0,0,0-3.616-1.4A11.4,11.4,0,0,0,12,4C4.5,4,.306,11.2.131,11.505a1,1,0,0,0,0,.989,17.373,17.373,0,0,0,3.043,3.713ZM10,12a2,2,0,0,1,2-2,1.968,1.968,0,0,1,1.183.4L10.4,13.183A1.968,1.968,0,0,1,10,12Zm2-6a9.382,9.382,0,0,1,1.919.2,10.1,10.1,0,0,1,2.549.919L14.612,8.974A3.952,3.952,0,0,0,12,8a4,4,0,0,0-4,4,3.952,3.952,0,0,0,.974,2.612l-1.98,1.98a13.228,13.228,0,0,1-2.452-1.844A16.381,16.381,0,0,1,2.187,12C3.219,10.483,6.716,6,12,6Z" fill="#6f7582"/>
    <path id="Path_18" data-name="Path 18" d="M12,18c-.083,0-.162,0-.242-.006a1,1,0,1,0-.176,1.992c.14.013.278.014.418.014,7.483,0,11.692-7.2,11.868-7.5a1,1,0,0,0,0-.993,16.433,16.433,0,0,0-2-2.648A1,1,0,0,0,20.391,10.2,16.442,16.442,0,0,1,21.812,12C20.775,13.519,17.269,18,12,18Z" fill="#6f7582"/>
  </g>
</svg>
