<svg id="lamp-charge" xmlns="http://www.w3.org/2000/svg" width="40" height="40" viewBox="0 0 40 40">
  <path id="Vector" d="M25.4,7.263A13.192,13.192,0,0,0,16.433.329,13.464,13.464,0,0,0,5.017,2.963,13.288,13.288,0,0,0,0,13.413a14.425,14.425,0,0,0,6.483,11.45v1.383a2.236,2.236,0,0,0,.533,1.767,2.875,2.875,0,0,0,2.133.667H17.7a2.784,2.784,0,0,0,2.05-.717,2.493,2.493,0,0,0,.6-1.933V24.863C25.517,21.379,28.767,14.029,25.4,7.263Z" transform="translate(6.617 3.337)" fill="#fff" opacity="0.4"/>
  <path id="Vector-2" data-name="Vector" d="M12.014,3.083a1.047,1.047,0,0,1-.317-.05,18.669,18.669,0,0,0-10.217,0,1.164,1.164,0,0,1-1.433-.8A1.151,1.151,0,0,1,.847.8a21.064,21.064,0,0,1,11.5,0,1.158,1.158,0,0,1,.8,1.433A1.205,1.205,0,0,1,12.014,3.083Z" transform="translate(13.419 33.583)" fill="#fff"/>
  <path id="Vector-3" data-name="Vector" d="M3.2,11.177a1.144,1.144,0,0,1-.617-.167,1.257,1.257,0,0,1-.467-1.7L3.537,6.844h-1.4A2.112,2.112,0,0,1,.254,5.861,2.093,2.093,0,0,1,.337,3.727L2.12.627A1.247,1.247,0,1,1,4.287,1.861L2.87,4.344h1.4a2.112,2.112,0,0,1,1.883.983A2.093,2.093,0,0,1,6.07,7.461l-1.783,3.1A1.243,1.243,0,0,1,3.2,11.177Z" transform="translate(16.796 11.906)" fill="#fff"/>
  <path id="Vector-4" data-name="Vector" d="M0,0H40V40H0Z" fill="none" opacity="0"/>
</svg>
