<svg id="search" xmlns="http://www.w3.org/2000/svg" width="25.497" height="25.497" viewBox="0 0 25.497 25.497">
  <path id="Path_7" data-name="Path 7" d="M5.651,146.791,4.763,150.1l-3.244.069a12.771,12.771,0,0,1-.094-11.9h0l2.888.529,1.265,2.871a7.608,7.608,0,0,0,.072,5.123Z" transform="translate(0 -131.382)" fill="#fbbb00"/>
  <path id="Path_8" data-name="Path 8" d="M273.874,208.176a12.744,12.744,0,0,1-4.545,12.324h0l-3.638-.186-.515-3.214a7.6,7.6,0,0,0,3.269-3.88h-6.817v-5.043h12.246Z" transform="translate(-248.599 -197.809)" fill="#518ef8"/>
  <path id="Path_9" data-name="Path 9" d="M49.719,316.69h0a12.753,12.753,0,0,1-19.211-3.9l4.131-3.382a7.582,7.582,0,0,0,10.926,3.882Z" transform="translate(-28.99 -294)" fill="#28b446"/>
  <path id="Path_10" data-name="Path 10" d="M48.085,2.935l-4.13,3.381a7.581,7.581,0,0,0-11.177,3.97l-4.153-3.4h0A12.751,12.751,0,0,1,48.085,2.935Z" transform="translate(-27.199)" fill="#f14336"/>
</svg>
