<svg xmlns="http://www.w3.org/2000/svg" width="24" height="24" viewBox="0 0 24 24">
  <g id="vuesax_bulk_lamp-charge" data-name="vuesax/bulk/lamp-charge" transform="translate(-549 -188)">
    <g id="lamp-charge">
      <path id="Vector" d="M15.24,4.358A7.915,7.915,0,0,0,9.86.2a8.079,8.079,0,0,0-6.85,1.58A7.973,7.973,0,0,0,0,8.048a8.655,8.655,0,0,0,3.89,6.87v.83a1.342,1.342,0,0,0,.32,1.06,1.725,1.725,0,0,0,1.28.4h5.13a1.671,1.671,0,0,0,1.23-.43,1.5,1.5,0,0,0,.36-1.16v-.7A8.381,8.381,0,0,0,15.24,4.358Z" transform="translate(552.97 190.002)" fill="#fff" opacity="0.4"/>
      <path id="Vector-2" data-name="Vector" d="M7.208,1.85a.628.628,0,0,1-.19-.03,11.2,11.2,0,0,0-6.13,0,.7.7,0,0,1-.86-.48A.69.69,0,0,1,.508.48a12.638,12.638,0,0,1,6.9,0,.7.7,0,0,1,.48.86A.723.723,0,0,1,7.208,1.85Z" transform="translate(557.052 208.15)" fill="#fff"/>
      <path id="Vector-3" data-name="Vector" d="M1.922,6.706a.686.686,0,0,1-.37-.1.754.754,0,0,1-.28-1.02l.85-1.48h-.84a1.267,1.267,0,0,1-1.13-.59A1.256,1.256,0,0,1,.2,2.236L1.272.376a.748.748,0,1,1,1.3.74l-.85,1.49h.84a1.267,1.267,0,0,1,1.13.59,1.256,1.256,0,0,1-.05,1.28l-1.07,1.86A.746.746,0,0,1,1.922,6.706Z" transform="translate(559.078 195.144)" fill="#fff"/>
      <path id="Vector-4" data-name="Vector" d="M0,0H24V24H0Z" transform="translate(549 188)" fill="none" opacity="0"/>
    </g>
  </g>
</svg>
