<svg xmlns="http://www.w3.org/2000/svg" width="21" height="21" viewBox="0 0 21 21">
  <g id="vuesax_bulk_bag" data-name="vuesax/bulk/bag" transform="translate(-108 -188)">
    <g id="bag" transform="translate(108 188)">
      <path id="Vector" d="M15.085,3.135h-.35L11.778.177a.618.618,0,0,0-.866,0,.618.618,0,0,0,0,.866L13,3.135H4.5L6.589,1.043a.618.618,0,0,0,0-.866.618.618,0,0,0-.866,0L2.774,3.135h-.35c-.787,0-2.424,0-2.424,2.24A2.385,2.385,0,0,0,.542,7.151a1.413,1.413,0,0,0,.735.394,3.384,3.384,0,0,0,.788.07h13.37a3.654,3.654,0,0,0,.77-.07c.735-.175,1.3-.7,1.3-2.17C17.5,3.135,15.864,3.135,15.085,3.135Z" transform="translate(1.75 1.748)" fill="#fff" opacity="0.4"/>
      <path id="Vector-2" data-name="Vector" d="M14.166.07H.788A3.384,3.384,0,0,1,0,0L1.1,6.72c.245,1.505.9,3.238,3.815,3.238H9.826c2.949,0,3.474-1.479,3.789-3.133L14.936,0A3.709,3.709,0,0,1,14.166.07ZM6.256,5.722a.612.612,0,1,1-1.225,0V2.835a.612.612,0,1,1,1.225,0Zm3.745,0a.613.613,0,1,1-1.225,0V2.835a.613.613,0,0,1,1.225,0Z" transform="translate(3.027 9.292)" fill="#fff"/>
      <path id="Vector-3" data-name="Vector" d="M0,0H21V21H0Z" fill="none" opacity="0"/>
    </g>
  </g>
</svg>
