<svg xmlns="http://www.w3.org/2000/svg" width="53" height="53" viewBox="0 0 53 53">
  <g id="vuesax_bulk_security-safe" data-name="vuesax/bulk/security-safe" transform="translate(-364 -316)">
    <g id="security-safe" transform="translate(364 316)">
      <path id="Vector" d="M0,0H53V53H0Z" transform="translate(53 53) rotate(180)" fill="none" opacity="0"/>
      <path id="Vector-2" data-name="Vector" d="M39.353,20.123c0,10.8-7.84,20.913-18.55,23.872a4.329,4.329,0,0,1-2.253,0C7.84,41.036,0,30.922,0,20.123V10.429A5.3,5.3,0,0,1,3.07,5.88L15.37.845A11.455,11.455,0,0,1,24,.845l12.3,5.035a5.346,5.346,0,0,1,3.07,4.549Z" transform="translate(6.824 4.433)" fill="#fefefe" opacity="0.4"/>
      <path id="Vector-3" data-name="Vector" d="M11.042,5.521a5.521,5.521,0,1,0-7.177,5.234v5.808a1.656,1.656,0,0,0,3.312,0V10.755A5.494,5.494,0,0,0,11.042,5.521Z" transform="translate(20.979 17.667)" fill="#fefefe"/>
    </g>
  </g>
</svg>
