<svg xmlns="http://www.w3.org/2000/svg" width="53.113" height="53.113" viewBox="0 0 53.113 53.113">
  <g id="vuesax_bulk_judge" data-name="vuesax/bulk/judge" transform="translate(-684 -572)">
    <g id="judge" transform="translate(684 572)">
      <path id="Vector" d="M0,0H53.113V53.113H0Z" fill="none" opacity="0"/>
      <g id="Group" transform="translate(32.156 28.836)">
        <path id="Vector-2" data-name="Vector" d="M13.3,13.3a1.656,1.656,0,0,1-2.346,0L0,2.346,1.173,1.173,2.346,0,13.3,10.955A1.67,1.67,0,0,1,13.3,13.3Z" fill="#fff"/>
      </g>
      <path id="Vector-3" data-name="Vector" d="M6.468.65,19.3,13.486a2.2,2.2,0,0,1,0,3.12L17.312,18.62a4.515,4.515,0,0,1-6.4,0l-9.6-9.6a4.528,4.528,0,0,1,0-6.374L3.325.628A2.251,2.251,0,0,1,6.468.65Z" transform="translate(7.851 19.887)" fill="#fff" opacity="0.4"/>
      <path id="Vector-4" data-name="Vector" d="M25.052,17.289,16.62,25.7a2.244,2.244,0,0,1-3.187,0L.664,12.93a2.244,2.244,0,0,1,0-3.187L9.1,1.311a4.528,4.528,0,0,1,6.374,0l9.6,9.6A4.549,4.549,0,0,1,25.052,17.289Z" transform="translate(16.089 5.262)" fill="#fff"/>
      <g id="Group-2" data-name="Group" transform="translate(2.766 44.814)">
        <path id="Vector-5" data-name="Vector" d="M14.938,3.32H1.66A1.672,1.672,0,0,1,0,1.66,1.672,1.672,0,0,1,1.66,0H14.938A1.672,1.672,0,0,1,16.6,1.66,1.672,1.672,0,0,1,14.938,3.32Z" fill="#fff"/>
      </g>
    </g>
  </g>
</svg>
