<svg xmlns="http://www.w3.org/2000/svg" width="21" height="21" viewBox="0 0 21 21">
  <g id="vuesax_bulk_warning-2" data-name="vuesax/bulk/warning-2" transform="translate(-172 -700)">
    <g id="warning-2" transform="translate(172 700)">
      <path id="Vector" d="M0,0H21V21H0Z" fill="none" opacity="0"/>
      <path id="Vector-2" data-name="Vector" d="M15.9,5.758v5.985a2.777,2.777,0,0,1-1.374,2.389l-5.2,3a2.768,2.768,0,0,1-2.756,0l-5.2-3A2.756,2.756,0,0,1,0,11.743V5.758A2.777,2.777,0,0,1,1.374,3.369l5.2-3a2.768,2.768,0,0,1,2.756,0l5.2,3A2.766,2.766,0,0,1,15.9,5.758Z" transform="translate(2.546 1.75)" fill="#f1c40f" opacity="0.4"/>
      <g id="Group" transform="translate(9.844 6.125)">
        <path id="Vector-3" data-name="Vector" d="M.656,5.906A.661.661,0,0,1,0,5.25V.656A.661.661,0,0,1,.656,0a.661.661,0,0,1,.656.656V5.25A.661.661,0,0,1,.656,5.906Z" fill="#f1c40f"/>
      </g>
      <g id="Group-2" data-name="Group" transform="translate(9.625 13.345)">
        <path id="Vector-4" data-name="Vector" d="M.875,1.749a.871.871,0,0,1-.333-.07A.9.9,0,0,1,.254,1.5a1.278,1.278,0,0,1-.192-.289A.862.862,0,0,1,0,.874.881.881,0,0,1,.254.253.9.9,0,0,1,.542.069.874.874,0,0,1,1.5.253.9.9,0,0,1,1.68.542a.871.871,0,0,1,.07.333.871.871,0,0,1-.07.333A1.01,1.01,0,0,1,1.5,1.5.866.866,0,0,1,.875,1.749Z" transform="translate(0 0)" fill="#f1c40f"/>
      </g>
    </g>
  </g>
</svg>
