<svg xmlns="http://www.w3.org/2000/svg" width="53" height="53" viewBox="0 0 53 53">
  <g id="vuesax_bulk_verify" data-name="vuesax/bulk/verify" transform="translate(-748 -444)">
    <g id="verify" transform="translate(748 444)">
      <path id="Vector" d="M19.312.977a4.45,4.45,0,0,1,5.565,0l3.489,3a4.895,4.895,0,0,0,2.783,1.038H34.9a4.279,4.279,0,0,1,4.262,4.262v3.754A4.954,4.954,0,0,0,40.2,15.817l3,3.489a4.45,4.45,0,0,1,0,5.565l-3,3.489a4.895,4.895,0,0,0-1.038,2.783V34.9A4.279,4.279,0,0,1,34.9,39.159H31.149A4.954,4.954,0,0,0,28.366,40.2l-3.489,3a4.45,4.45,0,0,1-5.565,0l-3.489-3a4.894,4.894,0,0,0-2.783-1.038H9.22A4.279,4.279,0,0,1,4.958,34.9V31.121a5.025,5.025,0,0,0-1.016-2.76L.961,24.849a4.446,4.446,0,0,1,0-5.521l2.981-3.511a5.025,5.025,0,0,0,1.016-2.76v-3.8A4.279,4.279,0,0,1,9.22,5h3.82a4.954,4.954,0,0,0,2.783-1.038Z" transform="translate(4.428 4.433)" fill="#fff" opacity="0.4"/>
      <path id="Vector-2" data-name="Vector" d="M6.995,13.973a1.655,1.655,0,0,1-1.17-.486L.48,8.143A1.655,1.655,0,0,1,2.821,5.8L6.995,9.976l9.5-9.5a1.655,1.655,0,0,1,2.341,2.341L8.165,13.487A1.655,1.655,0,0,1,6.995,13.973Z" transform="translate(16.833 19.527)" fill="#fff"/>
      <path id="Vector-3" data-name="Vector" d="M0,0H53V53H0Z" fill="none" opacity="0"/>
    </g>
  </g>
</svg>
