<svg xmlns="http://www.w3.org/2000/svg" width="24" height="24" viewBox="0 0 24 24">
  <g id="vuesax_bulk_google-play" data-name="vuesax/bulk/google-play" transform="translate(-96 -613)">
    <g id="google-play">
      <g id="Group_35" data-name="Group 35">
        <path id="BG_5" data-name="BG 5" d="M24,24h0Z" transform="translate(96 613)" fill="#fff" opacity="0.58"/>
        <path id="Vector" d="M7.7,4.15,3.19,6.41,0,3.22,3.22,0,7.7,2.25A1.058,1.058,0,0,1,7.7,4.15Z" transform="translate(109.7 621.8)" fill="#fff" opacity="0.4"/>
        <path id="Vector-2" data-name="Vector" d="M12.89,6.45,9.67,9.67,0,0Z" transform="translate(100.03 615.35)" fill="#fff"/>
        <path id="Vector-3" data-name="Vector" d="M11.7,10.022,2.12,19.6l-.57.29A1.071,1.071,0,0,1,0,18.932V1.072A1.071,1.071,0,0,1,1.55.112l.48.24Z" transform="translate(98 614.998)" fill="#fff" opacity="0.4"/>
        <path id="Vector-4" data-name="Vector" d="M12.77,3.19,0,9.58,9.58,0Z" transform="translate(100.12 625.02)" fill="#fff"/>
        <path id="Vector-5" data-name="Vector" d="M.03.03,0,0" transform="translate(112.89 628.21)" fill="#fff"/>
      </g>
      <path id="Vector-6" data-name="Vector" d="M0,0H24V24H0Z" transform="translate(96 613)" fill="none" opacity="0"/>
    </g>
  </g>
</svg>
