<svg xmlns="http://www.w3.org/2000/svg" width="24.63" height="24.63" viewBox="0 0 24.63 24.63">
  <g id="vuesax_bulk_bag" data-name="vuesax/bulk/bag" transform="translate(-108 -188)">
    <g id="bag" transform="translate(108 188)">
      <path id="Vector" d="M17.693,3.677h-.411L13.813.208a.725.725,0,0,0-1.016,0,.725.725,0,0,0,0,1.016L15.25,3.677H5.275L7.728,1.224a.725.725,0,0,0,0-1.016.725.725,0,0,0-1.016,0L3.253,3.677H2.843C1.919,3.677,0,3.677,0,6.3A2.8,2.8,0,0,0,.636,8.387a1.657,1.657,0,0,0,.862.462,3.969,3.969,0,0,0,.924.082H18.1a4.286,4.286,0,0,0,.9-.082c.862-.205,1.519-.821,1.519-2.545C20.525,3.677,18.606,3.677,17.693,3.677Z" transform="translate(2.053 2.05)" fill="#fff" opacity="0.4"/>
      <path id="Vector-2" data-name="Vector" d="M16.615.082H.924A3.969,3.969,0,0,1,0,0L1.293,7.882c.287,1.765,1.057,3.8,4.474,3.8h5.757c3.458,0,4.074-1.734,4.444-3.674l1.55-8A4.35,4.35,0,0,1,16.615.082ZM7.338,6.712a.718.718,0,1,1-1.437,0V3.325a.718.718,0,1,1,1.437,0Zm4.392,0a.718.718,0,1,1-1.437,0V3.325a.718.718,0,0,1,1.437,0Z" transform="translate(3.551 10.899)" fill="#fff"/>
      <path id="Vector-3" data-name="Vector" d="M0,0H24.63V24.63H0Z" fill="none" opacity="0"/>
    </g>
  </g>
</svg>
