<svg xmlns="http://www.w3.org/2000/svg" width="24" height="24" viewBox="0 0 24 24">
  <g id="vuesax_bulk_apple" data-name="vuesax/bulk/apple" transform="translate(-160 -485)">
    <g id="apple">
      <g id="Group_4" data-name="Group 4">
        <path id="BG_36" data-name="BG 36" d="M24,24h0Z" transform="translate(160 485)" fill="#fff" opacity="0.58"/>
        <g id="Group">
          <path id="Vector" d="M15.469,12.16a13.735,13.735,0,0,0,1.26-2.37,4.32,4.32,0,0,1-.57-7.8A4.946,4.946,0,0,0,12.419,0a5.619,5.619,0,0,0-2.21.48A4.079,4.079,0,0,1,8.7.84,4.957,4.957,0,0,1,7.009.45,5.673,5.673,0,0,0,4.969,0,5.086,5.086,0,0,0,.879,2.47C-.541,4.67-.291,8.79,2,12.31c.82,1.26,1.92,2.67,3.35,2.69a3.069,3.069,0,0,0,1.42-.36,4.222,4.222,0,0,1,1.95-.46,4.056,4.056,0,0,1,1.94.46,2.943,2.943,0,0,0,1.39.36C13.489,14.98,14.649,13.42,15.469,12.16Z" transform="translate(163.631 492)" fill="#fff"/>
        </g>
        <path id="Vector-2" data-name="Vector" d="M3.712,0a4.022,4.022,0,0,1-.88,2.95A3.578,3.578,0,0,1,.042,4.37a3.719,3.719,0,0,1,.9-2.88A4.346,4.346,0,0,1,3.712,0Z" transform="translate(172.128 487)" fill="#fff" opacity="0.4"/>
      </g>
      <path id="Vector-3" data-name="Vector" d="M0,0H24V24H0Z" transform="translate(160 485)" fill="none" opacity="0"/>
    </g>
  </g>
</svg>
