<svg xmlns="http://www.w3.org/2000/svg" width="40" height="40" viewBox="0 0 40 40">
  <g id="vuesax_bulk_danger" data-name="vuesax/bulk/danger" transform="translate(-428 -252)">
    <g id="danger" transform="translate(428 252)">
      <path id="Vector" d="M33.667,23.2,23,4c-1.433-2.583-3.417-4-5.6-4s-4.167,1.417-5.6,4L1.133,23.2c-1.35,2.45-1.5,4.8-.417,6.65s3.217,2.867,6.017,2.867H28.067c2.8,0,4.933-1.017,6.017-2.867S35.017,25.633,33.667,23.2Z" transform="translate(2.6 3.333)" fill="#fff" opacity="0.4"/>
      <path id="Vector-2" data-name="Vector" d="M1.25,10.833A1.259,1.259,0,0,1,0,9.583V1.25A1.259,1.259,0,0,1,1.25,0,1.259,1.259,0,0,1,2.5,1.25V9.583A1.259,1.259,0,0,1,1.25,10.833Z" transform="translate(18.75 13.75)" fill="#fff"/>
      <path id="Vector-3" data-name="Vector" d="M1.667,3.337A2.5,2.5,0,0,1,1.333,3.3a1.059,1.059,0,0,1-.3-.1,1.262,1.262,0,0,1-.3-.15l-.25-.2A1.753,1.753,0,0,1,0,1.671,1.753,1.753,0,0,1,.483.488l.25-.2a1.262,1.262,0,0,1,.3-.15,1.059,1.059,0,0,1,.3-.1,1.427,1.427,0,0,1,.65,0,1,1,0,0,1,.317.1,1.262,1.262,0,0,1,.3.15l.25.2a1.753,1.753,0,0,1,.483,1.183A1.753,1.753,0,0,1,2.85,2.854l-.25.2a1.262,1.262,0,0,1-.3.15,1,1,0,0,1-.317.1A2.042,2.042,0,0,1,1.667,3.337Z" transform="translate(18.333 26.662)" fill="#fff"/>
      <path id="Vector-4" data-name="Vector" d="M0,0H40V40H0Z" fill="none" opacity="0"/>
    </g>
  </g>
</svg>
