<svg xmlns="http://www.w3.org/2000/svg" width="24" height="24" viewBox="0 0 24 24">
  <g id="vuesax_bulk_home-trend-up" data-name="vuesax/bulk/home-trend-up" transform="translate(-428 -188)">
    <g id="home-trend-up">
      <g id="home-trend-up-2" data-name="home-trend-up">
        <path id="Vector" d="M18.05,4.818,12.29.788A4.853,4.853,0,0,0,6.8.918L1.79,4.828A5.153,5.153,0,0,0,0,8.468v6.9A4.631,4.631,0,0,0,4.62,20H15.4a4.622,4.622,0,0,0,4.62-4.62V8.6A5.1,5.1,0,0,0,18.05,4.818Z" transform="translate(429.99 190.002)" fill="#fff" opacity="0.4"/>
        <path id="Vector-2" data-name="Vector" d="M9.712.43a.707.707,0,0,0-.38-.38A.646.646,0,0,0,9.063,0H7.2a.7.7,0,0,0-.7.7.7.7,0,0,0,.7.7h.18L5.273,3.51,4.252,1.99a.712.712,0,0,0-.51-.31.676.676,0,0,0-.56.2L.2,4.86a.706.706,0,0,0,0,.99.672.672,0,0,0,.49.2.7.7,0,0,0,.49-.2l2.38-2.38,1.02,1.52a.712.712,0,0,0,.51.31.676.676,0,0,0,.56-.2l2.72-2.72v.18a.7.7,0,1,0,1.4,0V.7A.764.764,0,0,0,9.712.43Z" transform="translate(435.117 198.84)" fill="#fff"/>
      </g>
      <path id="Vector-3" data-name="Vector" d="M0,0H24V24H0Z" transform="translate(428 188)" fill="none" opacity="0"/>
    </g>
  </g>
</svg>
