<svg xmlns="http://www.w3.org/2000/svg" width="21.415" height="21.415" viewBox="0 0 21.415 21.415">
  <g id="vuesax_bulk_wallet-add" data-name="vuesax/bulk/wallet-add" transform="translate(-108 -572)">
    <g id="wallet-add" transform="translate(108 572)">
      <path id="Vector" d="M6.871.462,6.844.525,4.256,6.53H1.713A4.262,4.262,0,0,0,0,6.878l1.562-3.73.036-.08.054-.143a1.415,1.415,0,0,1,.071-.161C2.891.061,4.212-.555,6.871.462Z" transform="translate(4.64 1.786)" fill="#fff" opacity="0.8"/>
      <path id="Vector-2" data-name="Vector" d="M7.424,6.246a4.513,4.513,0,0,0-1.258-.178H0L2.588.062,2.614,0c.125.045.259.107.393.152l1.972.83a5.9,5.9,0,0,1,2.338,1.5c.08.107.152.205.223.321a1.358,1.358,0,0,1,.178.384,1.194,1.194,0,0,1,.08.232A4.307,4.307,0,0,1,7.424,6.246Z" transform="translate(8.896 2.249)" fill="#fff"/>
      <path id="Vector-3" data-name="Vector" d="M17.418,4.354v1.74c0,.178-.009.357-.018.526-.17,3.123-1.91,4.693-5.211,4.693H5.229A4.813,4.813,0,0,1,4.6,11.27Q.339,10.989.045,6.728A5.04,5.04,0,0,1,0,6.094V4.354A4.367,4.367,0,0,1,2.641.348,4.262,4.262,0,0,1,4.354,0h8.709a4.513,4.513,0,0,1,1.258.178A4.372,4.372,0,0,1,17.418,4.354Z" transform="translate(1.999 8.316)" fill="#fff" opacity="0.4"/>
      <path id="Vector-4" data-name="Vector" d="M4.2,0,2.641,3.73A4.367,4.367,0,0,0,0,7.736V5.122A5.219,5.219,0,0,1,4.2,0Z" transform="translate(1.999 4.934)" fill="#fff" opacity="0.6"/>
      <path id="Vector-5" data-name="Vector" d="M3.1,4.622V7.236A4.372,4.372,0,0,0,0,3.061,4.307,4.307,0,0,0,.375.232,1.194,1.194,0,0,0,.294,0,5.211,5.211,0,0,1,3.1,4.622Z" transform="translate(16.32 5.434)" fill="#fff" opacity="0.6"/>
      <path id="Vector-6" data-name="Vector" d="M5.131,2.177H3.569V.669a.669.669,0,0,0-1.338,0V2.177H.669a.669.669,0,0,0,0,1.338H2.231V5.131a.669.669,0,0,0,1.338,0V3.516H5.131a.669.669,0,0,0,0-1.338Z" transform="translate(7.808 10.931)" fill="#fff"/>
      <path id="Vector-7" data-name="Vector" d="M0,0H21.415V21.415H0Z" fill="none" opacity="0"/>
    </g>
  </g>
</svg>
