<svg xmlns="http://www.w3.org/2000/svg" width="21.154" height="21.154" viewBox="0 0 21.154 21.154">
  <g id="vuesax_bulk_wallet" data-name="vuesax/bulk/wallet" transform="translate(-236 -444)">
    <g id="wallet" transform="translate(236 444)">
      <path id="Vector" d="M0,0H21.154V21.154H0Z" fill="none" opacity="0"/>
      <path id="Vector-2" data-name="Vector" d="M17.628,4.407V8.814a4.164,4.164,0,0,1-4.407,4.407H4.407A4.164,4.164,0,0,1,0,8.814V4.407A4.1,4.1,0,0,1,3.693.053,4.691,4.691,0,0,1,4.407,0h8.814a4.031,4.031,0,0,1,.661.044A4.111,4.111,0,0,1,17.628,4.407Z" transform="translate(1.763 6.17)" fill="#fff" opacity="0.4"/>
      <path id="Vector-3" data-name="Vector" d="M10.189,4.451a4.031,4.031,0,0,0-.661-.044H.714A4.691,4.691,0,0,0,0,4.46a2.682,2.682,0,0,1,.511-.687L3.376.9A3.107,3.107,0,0,1,7.748.9L9.29,2.459A2.974,2.974,0,0,1,10.189,4.451Z" transform="translate(5.456 1.763)" fill="#fff"/>
      <path id="Vector-4" data-name="Vector" d="M4.407,0H1.763a1.763,1.763,0,0,0,0,3.526H4.407" transform="translate(14.984 11.018)" fill="#fff"/>
    </g>
  </g>
</svg>
